<?xml version="1.0" encoding="UTF-8"?>
<svg width="16px" height="16px" viewBox="0 0 16 16" version="1.1" xmlns="http://www.w3.org/2000/svg" xmlns:xlink="http://www.w3.org/1999/xlink">
    <title>切片</title>
    <g id="备用" stroke="none" stroke-width="1" fill="none" fill-rule="evenodd">
        <g id="GIS界面调整" transform="translate(-279.000000, -17.000000)" fill="#999" fill-rule="nonzero">
            <g id="icon/应用中心" transform="translate(279.000000, 17.000000)">
                <g id="首页" transform="translate(1.333333, 0.000000)">
                    <path d="M14.2352927,5.14657529 L8.28235123,0.34267802 L8.28235128,0.342678059 C8.01778306,0.116649605 7.68052385,-0.00507318851 7.33333229,0.00016211305 L7.33333235,0.000162113661 C6.98640163,-0.00350792216 6.64967018,0.118024076 6.38431336,0.34267806 L0.431371868,5.14657533 L0.431371898,5.1465753 C0.161900193,5.37383332 0.00438988994,5.70787035 0,6.0613975 L0,14.7327112 L0,14.7327113 C0.0326336107,15.4640155 0.648431842,16.030556 1.37607784,15.9987215 L4.31372505,15.9987215 L4.313725,15.9987215 C5.02844599,15.9987215 5.60784271,15.4163795 5.60784271,14.6980254 L5.60784271,11.2294959 L5.60784271,11.229496 C5.60784266,10.8703189 5.89754107,10.579148 6.25490157,10.579148 L8.41177117,10.579148 L8.41177114,10.579148 C8.76913164,10.579148 9.05883,10.8703189 9.05883,11.229496 L9.05883,14.6980255 L9.05883,14.6980257 C9.05883011,15.4163798 9.63822672,15.9987218 10.3529477,15.9987218 L13.2949019,15.9987218 L13.294902,15.9987218 C14.0208555,16.0303013 14.6348294,15.464408 14.6662482,14.7347643 C14.6664021,14.7311902 14.6666667,14.7276154 14.6666667,14.7240401 L14.6666667,6.05272642 L14.6666667,6.05272976 C14.6603555,5.70211292 14.5029707,5.37150444 14.2352968,5.14657751 L14.2352927,5.14657529 Z M13.3725469,14.6850061 L13.3725469,14.6850061 C13.3470593,14.6914303 13.3203875,14.6914303 13.2948999,14.6850061 L10.3529456,14.6850061 L10.3529456,11.2164766 L10.3529456,11.2164766 C10.3529456,10.1389454 9.48385057,9.26543253 8.41176907,9.26543253 L6.25489947,9.26543253 L6.25489949,9.26543253 C5.18380072,9.26781689 4.31609479,10.1399332 4.31372291,11.2164766 L4.31372291,14.6850061 L1.3760757,14.6850061 L1.3760757,14.6850061 C1.34913237,14.6914564 1.32105831,14.6914564 1.29411498,14.6850061 L1.29411498,6.10909036 L7.23842228,1.33986477 L7.23842228,1.33986477 C7.26936423,1.33045968 7.30238223,1.33045968 7.33332418,1.33986477 L7.33332417,1.33986477 C7.36575173,1.33058604 7.40011217,1.33058604 7.43253993,1.33986477 L13.3725469,6.10909036 L13.3725469,14.6850061 Z" id="形状"></path>
                </g>
            </g>
        </g>
    </g>
</svg>